<svg width="720" height="720" viewBox="0 0 720 720" fill="none" xmlns="http://www.w3.org/2000/svg">
<path d="M229.622 648.072C236.288 655.087 243.32 661.745 250.69 668.016H568.411C603.446 634.709 636.61 586.901 665.669 520.819C665.669 520.819 717.134 390.514 705.154 276.293C693.173 162.072 618.149 71.8128 511.877 52.5888C405.605 33.3648 311.141 138.787 192.528 175.334C73.9152 211.882 -12.9599 309.83 18.2592 441.216C49.4785 572.602 136.656 549.994 229.622 648.072Z" fill="#F4DB73"/>
<path d="M528.811 235.224C533.434 237.24 544.738 236.981 544.738 236.981C544.738 236.981 542.304 229.579 542.103 229.133C539.611 223.949 531.778 215.381 525.384 216.173C524.329 216.346 523.323 216.74 522.43 217.328C521.538 217.915 520.779 218.685 520.203 219.585C519.627 220.486 519.247 221.497 519.088 222.554C518.929 223.611 518.994 224.69 519.279 225.72C520.33 230.213 524.866 233.496 528.811 235.224Z" fill="#C2C2C2"/>
<path d="M643.147 237.701C643.234 237.773 645.192 230.198 645.264 229.709C646.056 223.949 644.242 212.529 638.439 209.736C637.463 209.297 636.406 209.069 635.336 209.066C634.266 209.063 633.208 209.286 632.229 209.719C631.251 210.152 630.376 210.787 629.659 211.581C628.942 212.376 628.401 213.312 628.071 214.329C626.515 218.649 628.488 223.833 630.821 227.448C633.6 231.681 643.133 237.701 643.147 237.701Z" fill="#C2C2C2"/>
<path d="M676.887 196.747C670.479 196.056 662.875 204.825 660.528 210.081C660.327 210.542 657.979 218.001 658.095 218.001H658.239C657.029 219.441 655.747 220.881 654.365 222.523C651.874 225.59 649.066 229.09 646.272 233.107C643.214 237.398 640.41 241.865 637.877 246.485C635 251.645 632.591 257.052 630.677 262.641C630.669 262.708 630.669 262.776 630.677 262.843C630.677 260.957 630.677 255.643 630.576 255.269C629.827 249.509 625.047 238.982 618.711 237.816C617.651 237.648 616.568 237.707 615.533 237.988C614.497 238.269 613.533 238.766 612.704 239.446C611.874 240.126 611.198 240.974 610.719 241.934C610.24 242.894 609.97 243.944 609.927 245.016C609.552 249.552 612.807 254.088 616.047 256.953C619.661 260.179 629.683 263.304 630.447 263.549C628.648 269.281 627.229 275.126 626.199 281.045C625.594 284.486 625.075 287.971 624.615 291.485C624.615 289.857 624.615 288.389 624.528 288.187C623.779 282.427 618.999 271.901 612.677 270.734C611.617 270.567 610.533 270.626 609.497 270.906C608.461 271.187 607.496 271.684 606.665 272.363C605.834 273.043 605.157 273.891 604.676 274.851C604.196 275.811 603.924 276.862 603.879 277.934C603.504 282.47 606.759 287.006 609.999 289.872C613.239 292.738 621.749 295.632 624.01 296.323L623.491 300.369C622.728 306.821 621.979 313.329 621.058 319.594C620.741 321.811 620.338 323.986 619.949 326.16C619.949 324.72 619.949 323.496 619.863 323.28C619.128 317.52 614.347 306.994 608.011 305.827C606.952 305.66 605.869 305.718 604.834 305.999C603.798 306.28 602.834 306.777 602.004 307.457C601.175 308.137 600.498 308.985 600.02 309.945C599.541 310.905 599.271 311.955 599.227 313.027C598.853 317.549 602.107 322.085 605.347 324.95C608.587 327.816 616.263 330.408 618.941 331.272C618.466 333.49 618.005 335.721 617.501 337.853C617.098 339.293 616.795 340.733 616.306 342.173C615.816 343.613 615.384 345.053 614.938 346.406C613.973 349.07 612.994 351.821 611.971 354.384C611.295 356.184 610.603 357.869 609.912 359.582C610.258 357.379 610.848 353.045 610.863 352.67C610.792 347.609 609.424 342.651 606.888 338.27C606.905 337.707 606.871 337.143 606.787 336.586C606.655 335.524 606.299 334.502 605.745 333.587C605.191 332.672 604.451 331.884 603.572 331.274C602.693 330.664 601.695 330.246 600.644 330.047C599.593 329.848 598.512 329.873 597.471 330.12C591.25 331.776 587.29 342.705 587.002 348.451C587.002 348.782 587.203 352.483 587.391 354.816C587.074 353.462 586.786 352.137 586.44 350.755C585.792 348.005 585 345.269 584.28 342.331L582.999 338.011C582.595 336.571 581.991 335.131 581.487 333.691C580.263 330.336 578.851 326.981 577.354 323.611C579.759 323.035 588.283 320.861 591.754 318.226C595.224 315.59 598.767 311.342 598.738 306.792C598.768 305.723 598.572 304.66 598.163 303.671C597.755 302.683 597.143 301.792 596.367 301.055C595.592 300.319 594.67 299.755 593.662 299.398C592.653 299.042 591.581 298.902 590.515 298.987C584.107 299.678 578.549 309.888 577.383 315.518C577.383 315.864 576.936 319.997 576.778 322.272C575.856 320.27 574.949 318.269 573.898 316.267C571.018 310.507 567.951 304.747 564.912 298.987C563.976 297.23 563.069 295.474 562.147 293.702C563.011 293.515 573.207 291.153 577.037 288.201C580.435 285.595 584.05 281.318 584.021 276.768C584.051 275.699 583.855 274.636 583.447 273.647C583.038 272.659 582.426 271.768 581.651 271.031C580.875 270.295 579.953 269.731 578.945 269.374C577.937 269.018 576.865 268.878 575.799 268.963C569.391 269.654 563.832 279.864 562.666 285.494C562.579 285.912 562.047 291.874 561.989 293.386C559.973 289.512 558 285.624 556.229 281.707C553.785 276.44 551.688 271.019 549.951 265.478C550.354 265.378 560.995 262.958 564.927 259.949C568.325 257.342 571.939 253.065 571.911 248.515C571.941 247.445 571.744 246.38 571.335 245.391C570.926 244.401 570.313 243.509 569.535 242.773C568.758 242.036 567.835 241.472 566.825 241.117C565.815 240.761 564.741 240.623 563.674 240.71C557.28 241.402 551.722 251.611 550.555 257.242C550.483 257.601 550.066 262.137 549.922 264.297H549.562C547.955 258.676 546.857 252.922 546.279 247.104C545.919 243.907 545.76 240.826 545.659 237.83C547.69 237.586 556.949 236.39 560.779 234.029C564.61 231.667 568.527 227.952 568.987 223.43C569.131 222.371 569.051 221.294 568.751 220.269C568.451 219.243 567.939 218.292 567.248 217.477C566.557 216.662 565.702 216.002 564.739 215.539C563.776 215.076 562.726 214.821 561.658 214.79C555.221 214.79 548.583 224.309 546.811 229.781C546.711 230.083 546.063 233.208 545.631 235.541C545.631 234.187 545.559 232.79 545.559 231.494C545.559 226.627 545.875 222.163 546.192 218.217C546.379 215.971 546.595 213.897 546.826 212.054C548.683 210.773 556.128 205.517 558.418 201.758C560.707 198 562.493 192.801 560.823 188.568C560.464 187.559 559.897 186.637 559.158 185.862C558.42 185.087 557.527 184.476 556.537 184.068C555.547 183.661 554.482 183.466 553.412 183.497C552.342 183.528 551.29 183.784 550.325 184.248C544.565 187.128 543.125 198.648 544.047 204.408C544.133 204.897 546.293 212.414 546.394 212.357L546.495 212.27C546.25 214.099 546.005 216.043 545.775 218.174C545.386 222.12 544.968 226.584 544.853 231.48C544.68 236.763 544.81 242.052 545.242 247.32C545.675 253.203 546.639 259.035 548.122 264.744C548.122 264.744 548.122 264.874 548.122 264.946C547.114 263.347 544.133 258.998 543.802 258.681C540.043 254.361 530.223 248.141 524.29 250.661C523.316 251.105 522.446 251.749 521.738 252.552C521.03 253.355 520.499 254.298 520.18 255.319C519.86 256.341 519.76 257.419 519.885 258.482C520.01 259.545 520.358 260.57 520.906 261.489C523.095 265.478 528.351 267.437 532.599 268.07C537.394 268.762 547.474 265.838 548.28 265.593C549.935 271.37 551.98 277.028 554.4 282.528C555.84 285.739 557.28 288.936 558.821 292.118C557.899 290.765 557.064 289.569 556.935 289.411C553.176 285.091 543.341 278.87 537.423 281.39C536.449 281.834 535.579 282.479 534.871 283.282C534.163 284.084 533.632 285.027 533.313 286.049C532.993 287.071 532.893 288.148 533.018 289.211C533.143 290.275 533.491 291.299 534.039 292.219C536.227 296.208 541.469 298.181 545.717 298.8C549.965 299.419 558.677 297.101 560.967 296.453C561.571 297.677 562.162 298.886 562.767 300.096C565.647 305.856 568.627 311.717 571.407 317.477C572.357 319.507 573.221 321.552 574.099 323.582C573.279 322.387 572.573 321.379 572.458 321.249C568.699 316.929 558.864 310.709 552.946 313.229C551.972 313.671 551.103 314.314 550.395 315.116C549.687 315.917 549.156 316.859 548.837 317.879C548.517 318.9 548.417 319.977 548.542 321.039C548.667 322.101 549.014 323.125 549.562 324.043C551.751 328.032 556.992 330.005 561.24 330.624C565.488 331.243 573.365 329.184 576.087 328.392C576.907 330.509 577.757 332.625 578.463 334.699C578.923 336.139 579.456 337.493 579.831 338.947C580.205 340.402 580.623 341.827 581.026 343.267C581.688 346.018 582.379 348.854 582.955 351.547C583.373 353.434 583.733 355.219 584.107 357.034C583.171 354.989 581.227 351.043 581.083 350.741C578.016 345.874 569.247 338.256 562.997 339.854C561.969 340.146 561.013 340.651 560.193 341.337C559.373 342.023 558.707 342.874 558.238 343.835C557.77 344.795 557.509 345.844 557.472 346.913C557.436 347.981 557.626 349.045 558.029 350.035C559.584 354.355 564.466 357.048 568.57 358.315C573.106 359.755 583.114 358.43 584.41 358.315C585 361.31 585.562 364.234 586.037 366.955C586.872 371.65 587.477 375.97 588.082 379.814H592.243C591.581 375.782 590.803 371.174 589.795 366.249C589.191 363.211 588.499 359.985 587.751 356.659C590.759 355.447 593.696 354.068 596.549 352.526C599.847 356.098 608.299 360.273 609.394 360.806C608.242 363.686 607.09 366.365 605.967 368.928C604.239 372.902 602.583 376.546 601.042 379.814H605.491C606.773 376.934 608.112 373.795 609.48 370.411C610.661 367.531 611.871 364.464 613.08 361.281C614.29 361.541 624.197 363.557 628.819 362.506C633.01 361.555 638.079 359.193 639.951 355.046C640.427 354.088 640.695 353.04 640.739 351.971C640.782 350.902 640.599 349.836 640.202 348.843C639.805 347.849 639.203 346.951 638.435 346.206C637.667 345.461 636.751 344.886 635.746 344.52C629.64 342.461 620.323 349.402 616.911 354.024C616.709 354.298 614.851 357.509 613.714 359.554C614.203 358.243 614.693 356.99 615.154 355.637C616.133 352.987 617.026 350.309 618.034 347.429C618.451 345.989 618.883 344.549 619.301 343.109C619.719 341.669 620.064 340.142 620.453 338.645C621.288 335.16 621.893 331.589 622.555 327.974C624.874 328.824 633.183 331.718 637.488 331.416C641.794 331.113 647.151 329.529 649.627 325.656C650.244 324.78 650.668 323.783 650.873 322.732C651.079 321.68 651.06 320.597 650.818 319.553C650.576 318.51 650.116 317.529 649.47 316.675C648.823 315.821 648.003 315.113 647.064 314.597C641.304 311.717 631.08 317.088 627.005 321.149C626.76 321.408 624.125 324.648 622.771 326.448C623.103 324.273 623.463 322.128 623.736 319.896C624.528 313.502 625.176 307.022 625.767 300.557C625.954 298.57 626.17 296.597 626.371 294.624C627.207 294.926 636.999 298.584 641.823 298.238C646.143 297.936 651.485 296.366 653.962 292.478C654.578 291.603 655.002 290.608 655.207 289.557C655.412 288.507 655.393 287.425 655.151 286.382C654.909 285.34 654.45 284.36 653.803 283.507C653.157 282.655 652.337 281.948 651.399 281.434C645.639 278.481 635.415 283.925 631.339 287.986C631.037 288.288 627.307 292.954 626.415 294.192C626.875 289.872 627.365 285.552 628.042 281.232C628.906 275.489 630.142 269.808 631.743 264.226C632.131 264.37 642.341 268.229 647.28 267.869C651.6 267.581 656.943 265.997 659.419 262.195C660.036 261.319 660.46 260.322 660.665 259.271C660.871 258.219 660.852 257.136 660.61 256.093C660.368 255.049 659.908 254.068 659.262 253.214C658.615 252.36 657.795 251.652 656.856 251.136C651.096 248.256 640.872 253.627 636.797 257.688C636.538 257.947 633.687 261.504 632.376 263.232L632.045 263.059C633.816 257.485 636.076 252.078 638.799 246.902C640.239 244.022 641.823 241.387 643.407 238.838C645.235 239.745 653.631 243.821 658.109 244.008C662.587 244.195 667.915 243.201 670.795 239.688C671.503 238.885 672.033 237.943 672.351 236.922C672.67 235.901 672.77 234.824 672.645 233.762C672.52 232.7 672.173 231.676 671.626 230.756C671.079 229.837 670.345 229.044 669.471 228.427C664.099 224.87 653.314 229.147 648.807 232.747C648.562 232.934 646.301 235.195 644.674 236.866C645.408 235.728 646.114 234.533 646.848 233.453C649.541 229.392 652.263 225.849 654.696 222.725C656.136 220.953 657.389 219.384 658.627 217.929C660.888 217.929 669.989 217.613 673.978 215.755C677.967 213.897 682.315 210.514 683.251 206.064C683.499 205.03 683.527 203.957 683.334 202.911C683.141 201.866 682.732 200.873 682.133 199.996C681.533 199.118 680.757 198.376 679.853 197.817C678.95 197.257 677.939 196.893 676.887 196.747Z" fill="#C2C2C2"/>
<path d="M33.4945 339.681C38.1169 341.697 49.4209 341.438 49.4209 341.438C49.4209 341.438 46.9873 334.051 46.7857 333.59C44.2945 328.406 36.4609 319.838 30.0673 320.702C29.0126 320.876 28.0062 321.269 27.1136 321.857C26.2209 322.445 25.462 323.214 24.8861 324.115C24.3103 325.015 23.9304 326.027 23.7711 327.084C23.6118 328.141 23.6767 329.219 23.9617 330.249C25.0129 334.67 29.5489 337.953 33.4945 339.681Z" fill="#C2C2C2"/>
<path d="M147.83 342.173C147.917 342.173 149.875 334.656 149.947 334.166C150.739 328.406 148.925 317.001 143.122 314.193C142.146 313.755 141.089 313.527 140.019 313.524C138.949 313.521 137.891 313.743 136.913 314.177C135.935 314.61 135.059 315.245 134.342 316.039C133.626 316.833 133.084 317.77 132.754 318.787C131.198 323.107 133.171 328.305 135.504 331.905C138.24 336.139 147.816 342.158 147.83 342.173Z" fill="#C2C2C2"/>
<path d="M181.57 301.205C175.162 300.513 167.559 309.283 165.211 314.539C165.01 315 162.663 322.459 162.778 322.459H162.922C161.712 323.827 160.431 325.339 159.048 326.981C156.557 330.062 153.749 333.561 150.955 337.565C147.902 341.858 145.099 346.325 142.56 350.942C139.683 356.103 137.274 361.51 135.36 367.099C135.352 367.166 135.352 367.234 135.36 367.301C135.36 365.414 135.36 360.101 135.259 359.726C134.511 353.966 129.73 343.44 123.394 342.273C122.335 342.108 121.252 342.169 120.218 342.45C119.184 342.732 118.22 343.229 117.391 343.909C116.562 344.588 115.886 345.435 115.407 346.394C114.927 347.353 114.656 348.402 114.61 349.473C114.235 353.995 117.49 358.531 120.73 361.397C124.344 364.622 134.367 367.747 135.13 367.992C133.333 373.725 131.914 379.569 130.882 385.488C130.277 388.929 129.759 392.429 129.298 395.928C129.298 394.301 129.298 392.832 129.211 392.63C128.463 386.87 123.682 376.344 117.36 375.177C116.3 375.012 115.217 375.073 114.182 375.354C113.147 375.636 112.183 376.133 111.353 376.812C110.523 377.492 109.845 378.338 109.364 379.297C108.883 380.256 108.61 381.306 108.562 382.377C108.187 386.899 111.442 391.435 114.682 394.301C117.922 397.166 126.432 400.061 128.693 400.766L128.175 404.798C127.411 411.264 126.735 417.758 125.741 424.022C125.424 426.24 125.021 428.414 124.632 430.603C124.632 429.163 124.632 427.925 124.546 427.723C123.811 421.963 119.031 411.437 112.695 410.27C111.635 410.105 110.553 410.165 109.519 410.447C108.484 410.729 107.521 411.226 106.692 411.906C105.863 412.585 105.187 413.432 104.707 414.391C104.228 415.35 103.957 416.399 103.911 417.47C103.536 421.992 106.791 426.528 110.031 429.393C113.271 432.259 120.946 434.851 123.624 435.715C123.149 437.947 122.688 440.165 122.184 442.296C121.781 443.736 121.479 445.176 120.989 446.616C120.499 448.056 120.067 449.496 119.621 450.849C118.656 453.513 117.677 456.264 116.655 458.827C115.978 460.627 115.215 462.326 114.595 464.025C114.941 461.822 115.531 457.488 115.546 457.113C115.477 452.052 114.109 447.093 111.571 442.713C111.589 442.145 111.555 441.577 111.471 441.014C111.336 439.954 110.979 438.933 110.424 438.019C109.87 437.105 109.129 436.318 108.251 435.708C107.373 435.099 106.376 434.68 105.326 434.481C104.275 434.281 103.195 434.304 102.154 434.549C95.933 436.219 91.973 447.134 91.685 452.88C91.685 453.211 91.8866 456.912 92.0738 459.245C91.757 457.891 91.469 456.566 91.1234 455.184C90.4754 452.433 89.6834 449.697 88.9634 446.76L87.6818 442.512C87.2786 441.072 86.6738 439.632 86.2418 438.192C85.0178 434.837 83.6066 431.481 82.109 428.112C84.5138 427.536 93.0386 425.361 96.509 422.726C99.9794 420.091 103.522 415.843 103.493 411.293C103.523 410.224 103.327 409.16 102.919 408.172C102.51 407.184 101.898 406.292 101.123 405.556C100.347 404.82 99.4251 404.255 98.4168 403.899C97.4086 403.543 96.3366 403.403 95.2706 403.488C88.8626 404.193 83.3042 414.389 82.1378 420.019C82.1378 420.365 81.6914 424.497 81.533 426.787C80.6114 424.771 79.7042 422.769 78.725 420.782C75.845 415.022 72.7778 409.262 69.7394 403.502C68.8034 401.731 67.8962 399.974 66.9746 398.217C67.8386 398.016 78.0338 395.654 81.8642 392.717C85.2626 390.096 88.877 385.819 88.8482 381.269C88.8779 380.2 88.6822 379.136 88.2738 378.148C87.8654 377.16 87.2535 376.268 86.4778 375.532C85.7022 374.796 84.7803 374.231 83.772 373.875C82.7638 373.519 81.6918 373.379 80.6258 373.464C74.2178 374.169 68.6594 384.365 67.493 389.995C67.4066 390.427 66.8738 396.374 66.8162 397.886C64.8002 394.013 62.8274 390.125 61.0562 386.208C58.61 380.942 56.5127 375.52 54.7778 369.979C55.181 369.893 65.8226 367.473 69.7538 364.449C73.1522 361.843 76.7666 357.566 76.7378 353.016C76.7677 351.946 76.5716 350.881 76.1623 349.892C75.7531 348.902 75.1399 348.01 74.3626 347.274C73.5854 346.537 72.6617 345.973 71.6517 345.617C70.6417 345.262 69.5681 345.124 68.501 345.211C62.1074 345.902 56.549 356.112 55.3826 361.742C55.3826 362.117 54.893 366.653 54.749 368.813H54.389C52.7812 363.191 51.6824 357.437 51.1058 351.619C50.7458 348.422 50.5874 345.341 50.4866 342.345C52.517 342.101 61.7762 340.905 65.6066 338.544C69.437 336.182 73.3538 332.467 73.8146 327.945C73.9584 326.887 73.8779 325.809 73.5783 324.784C73.2786 323.758 72.7665 322.807 72.0752 321.992C71.384 321.177 70.529 320.517 69.5659 320.054C68.6028 319.591 67.5531 319.336 66.485 319.305C60.0482 319.305 53.4098 328.824 51.6386 334.296C51.5378 334.598 50.8898 337.723 50.4578 340.056C50.4578 338.702 50.4578 337.305 50.4578 336.009C50.4578 331.142 50.7746 326.678 51.0914 322.733C51.2786 320.486 51.4946 318.413 51.725 316.584C53.5826 315.302 61.0274 310.032 63.245 306.273C65.4626 302.515 67.3202 297.317 65.6498 293.097C65.2909 292.089 64.7239 291.167 63.9854 290.392C63.247 289.617 62.3538 289.005 61.3637 288.598C60.3737 288.191 59.309 287.996 58.2389 288.027C57.1687 288.058 56.117 288.314 55.1522 288.777C49.3922 291.744 47.9522 303.177 48.8738 308.937C48.9602 309.427 51.1202 316.958 51.221 316.886L51.3218 316.814C51.077 318.629 50.8322 320.573 50.6018 322.704C50.213 326.664 49.7954 331.128 49.6802 336.009C49.5071 341.293 49.6369 346.581 50.069 351.849C50.5022 357.732 51.4661 363.564 52.949 369.273C52.949 369.345 52.949 369.403 52.949 369.475C51.941 367.877 48.9602 363.528 48.629 363.211C44.8706 358.891 35.0498 352.685 29.117 355.19C28.143 355.634 27.2736 356.279 26.5654 357.082C25.8572 357.884 25.3262 358.827 25.0069 359.849C24.6876 360.871 24.5873 361.948 24.7124 363.011C24.8375 364.075 25.1852 365.099 25.733 366.019C27.9218 370.008 33.1778 371.981 37.4258 372.6C42.221 373.291 52.301 370.368 53.1074 370.137C54.7648 375.909 56.8094 381.561 59.2274 387.057C60.6674 390.269 62.1074 393.465 63.6482 396.648C62.7266 395.309 61.8914 394.099 61.7618 393.955C58.0034 389.635 48.1682 383.414 42.2498 385.92C41.3009 386.368 40.4547 387.007 39.7643 387.797C39.074 388.587 38.5543 389.512 38.238 390.512C37.9216 391.512 37.8154 392.568 37.9259 393.611C38.0364 394.654 38.3613 395.664 38.8802 396.576C41.069 400.565 46.3106 402.537 50.5586 403.157C54.8066 403.776 63.5186 401.457 65.8082 400.809L67.6082 404.467C70.4882 410.227 73.469 416.073 76.2482 421.833C77.1986 423.878 78.0626 425.909 78.941 427.939C78.1202 426.744 77.4146 425.75 77.2994 425.606C73.541 421.286 63.7058 415.065 57.7874 417.585C56.8134 418.03 55.944 418.674 55.2358 419.477C54.5276 420.28 53.9966 421.222 53.6773 422.244C53.358 423.266 53.2577 424.343 53.3828 425.407C53.5079 426.47 53.8556 427.495 54.4034 428.414C56.5922 432.389 61.8338 434.361 66.0818 434.981C70.3298 435.6 78.2066 433.541 80.9282 432.763C81.749 434.865 82.5986 436.982 83.3042 439.07C83.765 440.51 84.2978 441.849 84.6722 443.304C85.0466 444.758 85.4642 446.184 85.8674 447.624C86.5298 450.374 87.221 453.211 87.797 455.918C88.2146 457.79 88.5746 459.576 88.949 461.39C88.013 459.36 86.069 455.414 85.925 455.097C82.8578 450.23 74.0882 442.627 67.8386 444.211C66.8096 444.504 65.854 445.011 65.034 445.698C64.2139 446.386 63.5479 447.238 63.0792 448.2C62.6105 449.162 62.3497 450.212 62.3138 451.281C62.2778 452.35 62.4675 453.415 62.8706 454.406C64.4258 458.726 69.3074 461.419 73.4114 462.672C77.9474 464.112 87.9554 462.787 89.2514 462.672C89.8418 465.667 90.4034 468.59 90.8786 471.312C91.7138 476.006 92.3186 480.326 92.9234 484.171H97.085C96.4226 480.139 95.645 475.531 94.637 470.621C94.0322 467.582 93.341 464.342 92.5922 461.016C95.6057 459.817 98.5439 458.437 101.391 456.883C104.688 460.454 113.141 464.63 114.235 465.163C113.083 468.043 111.931 470.721 110.808 473.285C109.08 477.273 107.424 480.902 105.883 484.171H110.333C111.615 481.291 112.954 478.152 114.322 474.768C115.503 471.888 116.712 468.821 117.922 465.638C119.131 465.897 129.039 467.913 133.661 466.862C137.851 465.926 142.92 463.55 144.792 459.403C145.268 458.445 145.537 457.397 145.58 456.328C145.623 455.259 145.441 454.193 145.044 453.199C144.647 452.206 144.045 451.307 143.277 450.562C142.509 449.818 141.593 449.243 140.587 448.877C134.482 446.832 125.165 453.758 121.752 458.381C121.551 458.654 119.693 461.865 118.555 463.91C119.045 462.6 119.535 461.347 119.995 459.993C120.975 457.344 121.867 454.665 122.875 451.785C123.293 450.345 123.725 448.905 124.143 447.465C124.56 446.025 124.906 444.499 125.295 443.001C126.13 439.517 126.735 435.945 127.397 432.331C129.715 433.181 138.024 436.075 142.33 435.773C146.635 435.47 151.992 433.901 154.469 430.085C155.085 429.21 155.51 428.214 155.715 427.164C155.919 426.113 155.9 425.031 155.658 423.989C155.416 422.946 154.957 421.966 154.31 421.114C153.664 420.261 152.844 419.554 151.906 419.04C146.146 416.088 135.922 421.531 131.847 425.577C131.602 425.837 128.967 429.077 127.613 430.877C127.944 428.702 128.304 426.557 128.578 424.325C129.37 417.945 130.018 411.451 130.608 404.985C130.795 402.998 131.011 401.025 131.213 399.053C132.048 399.369 141.84 403.013 146.664 402.667C150.984 402.379 156.327 400.795 158.803 396.993C159.42 396.117 159.844 395.121 160.049 394.069C160.255 393.018 160.236 391.935 159.994 390.891C159.752 389.847 159.292 388.866 158.646 388.012C157.999 387.158 157.179 386.45 156.24 385.934C150.48 382.982 140.256 388.425 136.181 392.486C135.879 392.789 132.149 397.454 131.256 398.693C131.717 394.373 132.207 390.053 132.883 385.733C133.749 379.99 134.985 374.309 136.584 368.726C136.973 368.87 147.183 372.729 152.122 372.384C156.442 372.081 161.784 370.497 164.261 366.624C164.877 365.749 165.302 364.753 165.507 363.703C165.712 362.652 165.692 361.571 165.45 360.528C165.208 359.485 164.749 358.506 164.102 357.653C163.456 356.8 162.636 356.093 161.698 355.579C155.938 352.627 145.714 358.056 141.639 362.117C141.379 362.39 138.528 365.933 137.218 367.661L136.887 367.488C138.655 361.917 140.915 356.515 143.64 351.345C145.08 348.465 146.664 345.816 148.248 343.267C150.077 344.174 158.472 348.264 162.951 348.437C167.429 348.609 172.757 347.63 175.637 344.117C176.344 343.314 176.874 342.372 177.193 341.351C177.512 340.33 177.612 339.253 177.487 338.191C177.362 337.128 177.015 336.104 176.468 335.185C175.921 334.266 175.186 333.472 174.312 332.856C168.941 329.299 158.155 333.576 153.648 337.176C153.403 337.377 151.143 339.624 149.515 341.294C150.25 340.157 150.955 338.961 151.69 337.881C154.383 333.821 157.104 330.278 159.538 327.153C160.978 325.397 162.231 323.827 163.469 322.373C165.73 322.373 174.831 322.056 178.819 320.184C182.808 318.312 187.157 314.942 188.093 310.507C188.338 309.463 188.359 308.379 188.156 307.326C187.952 306.272 187.529 305.274 186.913 304.396C186.297 303.518 185.503 302.78 184.582 302.23C183.661 301.68 182.635 301.33 181.57 301.205Z" fill="#C2C2C2"/>
<path d="M95.4142 277.157H635.414C639.409 277.157 643.24 278.744 646.065 281.568C648.89 284.393 650.477 288.224 650.477 292.219V647.179H80.3662V292.205C80.37 288.215 81.9567 284.39 84.7779 281.568C87.5991 278.747 91.4244 277.161 95.4142 277.157Z" fill="white" stroke="#263238" stroke-width="1.44" stroke-linecap="round" stroke-linejoin="round"/>
<path d="M627.307 306.058H103.493V602.078H627.307V306.058Z" stroke="#263238" stroke-width="1.44" stroke-linecap="round" stroke-linejoin="round"/>
<path d="M562.594 629.366H170.813V648.662H562.594V629.366Z" fill="#263238" stroke="#263238" stroke-width="1.44" stroke-linecap="round" stroke-linejoin="round"/>
<path d="M562.594 638.654H170.813V648.662H562.594V638.654Z" fill="white" stroke="#263238" stroke-width="1.44" stroke-linecap="round" stroke-linejoin="round"/>
<path d="M34.2576 660.096C34.2576 660.096 40.6944 667.973 60.0048 674.395H673.445C673.445 674.395 687.744 670.824 694.181 660.816L34.2576 660.096Z" fill="#263238" stroke="#263238" stroke-width="1.44" stroke-linecap="round" stroke-linejoin="round"/>
<path d="M692.798 646.013H35.683C34.1799 646.013 32.9614 647.231 32.9614 648.734V658.325C32.9614 659.828 34.1799 661.046 35.683 661.046H692.798C694.301 661.046 695.52 659.828 695.52 658.325V648.734C695.52 647.231 694.301 646.013 692.798 646.013Z" fill="white" stroke="#263238" stroke-width="1.44" stroke-linecap="round" stroke-linejoin="round"/>
<path d="M370.281 288.345C370.284 287.354 369.993 286.383 369.444 285.557C368.895 284.731 368.113 284.087 367.198 283.705C366.282 283.324 365.274 283.223 364.301 283.414C363.328 283.606 362.434 284.082 361.732 284.782C361.03 285.483 360.551 286.376 360.356 287.348C360.162 288.321 360.26 289.329 360.639 290.245C361.018 291.162 361.66 291.945 362.485 292.497C363.309 293.048 364.278 293.342 365.27 293.342C366.597 293.342 367.869 292.816 368.809 291.88C369.748 290.943 370.278 289.672 370.281 288.345Z" fill="white" stroke="#263238" stroke-width="1.44" stroke-linecap="round" stroke-linejoin="round"/>
<path d="M14.3999 674.395H715.68" stroke="#263238" stroke-width="1.44" stroke-linecap="round" stroke-linejoin="round"/>
<path d="M410.717 361.613C412.461 359.873 413.75 357.731 414.47 355.375C415.191 353.02 415.321 350.523 414.85 348.106L405.418 357.523C404.879 358.051 404.156 358.347 403.402 358.347C402.648 358.347 401.924 358.051 401.386 357.523L393.552 349.69C393.024 349.151 392.729 348.428 392.729 347.674C392.729 346.92 393.024 346.196 393.552 345.658L402.97 336.226C400.336 335.72 397.614 335.927 395.087 336.826C392.56 337.725 390.319 339.283 388.597 341.339C386.874 343.395 385.732 345.874 385.289 348.52C384.847 351.165 385.119 353.881 386.078 356.386L361.743 380.16L359.395 377.813L363.226 373.983C363.406 373.786 363.506 373.529 363.506 373.263C363.506 372.996 363.406 372.739 363.226 372.543L360.259 369.591C360.066 369.404 359.808 369.3 359.539 369.3C359.271 369.3 359.013 369.404 358.819 369.591L357.379 371.031L354.168 367.834L355.407 366.595C355.658 366.328 355.797 365.976 355.797 365.609C355.797 365.242 355.658 364.89 355.407 364.623L328.853 338.069C328.22 337.436 327.469 336.934 326.643 336.592C325.817 336.25 324.931 336.073 324.036 336.073C323.142 336.073 322.256 336.25 321.429 336.592C320.603 336.934 319.852 337.436 319.219 338.069L316.512 340.776C315.879 341.409 315.378 342.16 315.035 342.986C314.693 343.813 314.517 344.698 314.517 345.593C314.517 346.488 314.693 347.373 315.035 348.2C315.378 349.026 315.879 349.777 316.512 350.41L343.066 376.963C343.333 377.214 343.686 377.354 344.052 377.354C344.419 377.354 344.771 377.214 345.039 376.963L346.263 375.725L349.474 378.936L348.034 380.376C347.847 380.569 347.743 380.828 347.743 381.096C347.743 381.365 347.847 381.623 348.034 381.816L350.914 384.783C351.11 384.963 351.367 385.063 351.634 385.063C351.9 385.063 352.157 384.963 352.354 384.783L356.184 380.952L358.488 383.256L338.328 402.941C335.823 401.977 333.106 401.7 330.458 402.141C327.811 402.582 325.329 403.724 323.272 405.447C321.215 407.171 319.656 409.414 318.759 411.944C317.861 414.473 317.657 417.197 318.168 419.832L327.6 410.415C328.138 409.887 328.862 409.591 329.616 409.591C330.37 409.591 331.094 409.887 331.632 410.415L339.466 418.248C339.993 418.786 340.289 419.51 340.289 420.264C340.289 421.018 339.993 421.742 339.466 422.28L330.048 431.712C332.682 432.218 335.404 432.011 337.931 431.112C340.458 430.213 342.699 428.655 344.421 426.599C346.144 424.543 347.286 422.064 347.728 419.418C348.171 416.773 347.899 414.057 346.939 411.552L367.099 391.882L394.603 419.386C394.21 420.404 394.12 421.515 394.345 422.583C394.57 423.651 395.1 424.632 395.871 425.405L402.509 432.043L410.472 424.08L403.834 417.442C403.06 416.671 402.08 416.141 401.012 415.916C399.944 415.691 398.833 415.781 397.815 416.175L370.311 388.8L394.632 365.055C397.358 366.104 400.33 366.337 403.186 365.726C406.043 365.115 408.659 363.686 410.717 361.613Z" fill="#263238" stroke="#263238" stroke-width="1.44" stroke-linecap="round" stroke-linejoin="round"/>
<path d="M325.915 470.29C325.915 473.17 327.053 474.854 329.63 474.854C332.208 474.854 333.288 473.141 333.288 470.29V446.083H336.6V470.117C336.6 474.912 334.382 478.123 329.486 478.123C324.59 478.123 322.43 474.912 322.43 470.117V446.083H325.915V470.29Z" fill="#263238"/>
<path d="M343.195 477.763H340.027V446.083H344.506L351.835 468.979V446.083H354.96V477.763H351.36L343.195 452.16V477.763Z" fill="#263238"/>
<path d="M366.005 446.083C370.93 446.083 373.205 449.078 373.205 453.96V469.93C373.205 474.768 370.944 477.763 366.005 477.763H358.56V446.083H366.005ZM366.005 474.538C368.539 474.538 369.763 472.968 369.763 470.059V453.773C369.763 450.893 368.539 449.294 365.962 449.294H362.16V474.538H366.005Z" fill="#263238"/>
<path d="M387.763 460.109V463.277H380.016V474.538H389.52V477.763H376.488V446.083H389.52V449.28H380.016V460.094L387.763 460.109Z" fill="#263238"/>
<path d="M399.83 446.083C404.813 446.083 406.886 448.618 406.886 453.283V455.861C406.886 459.346 405.662 461.52 402.955 462.384C405.835 463.234 406.93 465.595 406.93 468.979V473.918C406.833 475.218 407.05 476.522 407.563 477.72H403.992C403.495 476.498 403.292 475.176 403.402 473.861V468.893C403.402 465.322 401.731 464.184 398.794 464.184H396.302V477.72H392.774V446.04L399.83 446.083ZM398.88 461.016C401.76 461.016 403.358 460.109 403.358 456.696V453.6C403.358 450.72 402.322 449.28 399.701 449.28H396.259V461.002L398.88 461.016Z" fill="#263238"/>
<path d="M281.203 518.4V521.28H277.92V518.242C277.92 515.362 276.782 513.677 274.205 513.677C271.627 513.677 270.49 515.391 270.49 518.242V534.96C270.49 537.84 271.67 539.525 274.205 539.525C276.739 539.525 277.92 537.811 277.92 534.96V530.842H281.261V534.773C281.261 539.568 279 542.736 274.061 542.736C269.122 542.736 266.962 539.568 266.962 534.773V518.4C266.962 513.605 269.222 510.437 274.061 510.437C278.899 510.437 281.203 513.605 281.203 518.4Z" fill="#263238"/>
<path d="M284.141 518.4C284.141 513.562 286.546 510.437 291.341 510.437C296.136 510.437 298.627 513.562 298.627 518.4V534.773C298.627 539.568 296.222 542.736 291.341 542.736C286.459 542.736 284.141 539.568 284.141 534.773V518.4ZM287.626 534.96C287.626 537.84 288.85 539.525 291.384 539.525C293.918 539.525 295.142 537.855 295.142 534.96V518.213C295.142 515.333 293.962 513.648 291.384 513.648C288.806 513.648 287.626 515.362 287.626 518.213V534.96Z" fill="#263238"/>
<path d="M305.136 542.419H301.968V510.739H306.446L313.776 533.635V510.739H316.901V542.419H313.229L305.136 516.816V542.419Z" fill="#263238"/>
<path d="M334.224 518.4V519.25H330.869V518.213C330.869 515.333 329.789 513.691 327.254 513.691C324.72 513.691 323.64 515.362 323.64 518.17C323.64 525.269 334.267 525.946 334.267 534.859C334.267 539.655 331.963 542.779 327.067 542.779C322.171 542.779 319.968 539.655 319.968 534.859V533.059H323.28V535.047C323.28 537.927 324.446 539.568 326.981 539.568C329.515 539.568 330.696 537.898 330.696 535.047C330.696 527.991 320.112 527.314 320.112 518.4C320.112 513.504 322.373 510.48 327.125 510.48C331.877 510.48 334.224 513.562 334.224 518.4Z" fill="#263238"/>
<path d="M341.957 542.419V513.965H336.11V510.754H351.36V513.965H345.528V542.419H341.957Z" fill="#263238"/>
<path d="M360.821 510.754C365.789 510.754 367.877 513.288 367.877 517.954V520.546C367.877 524.016 366.653 526.19 363.946 527.054C366.826 527.918 367.92 530.266 367.92 533.664V538.56C367.813 539.86 368.031 541.166 368.554 542.362H364.983C364.478 541.147 364.275 539.827 364.392 538.517V533.534C364.392 529.963 362.722 528.84 359.77 528.84H357.293V542.362H353.765V510.682L360.821 510.754ZM359.914 525.686C362.722 525.686 364.392 524.779 364.392 521.366V518.328C364.392 515.448 363.355 514.008 360.72 514.008H357.293V525.73L359.914 525.686Z" fill="#263238"/>
<path d="M374.933 534.96C374.933 537.84 376.056 539.525 378.634 539.525C381.211 539.525 382.306 537.811 382.306 534.96V510.754H385.603V534.773C385.603 539.568 383.386 542.779 378.504 542.779C373.622 542.779 371.448 539.568 371.448 534.773V510.754H374.933V534.96Z" fill="#263238"/>
<path d="M403.07 518.4V521.28H399.715V518.242C399.715 515.362 398.592 513.677 396.014 513.677C393.437 513.677 392.299 515.391 392.299 518.242V534.96C392.299 537.84 393.48 539.525 396.014 539.525C398.549 539.525 399.715 537.811 399.715 534.96V530.842H403.07V534.773C403.07 539.568 400.81 542.736 395.87 542.736C390.931 542.736 388.771 539.568 388.771 534.773V518.4C388.771 513.605 391.032 510.437 395.87 510.437C400.709 510.437 403.07 513.605 403.07 518.4Z" fill="#263238"/>
<path d="M410.89 542.419V513.965H405.13V510.754H420.322V513.965H414.562V542.419H410.89Z" fill="#263238"/>
<path d="M426.24 510.754V542.434H422.712V510.754H426.24Z" fill="#263238"/>
<path d="M429.566 518.4C429.566 513.562 431.971 510.437 436.766 510.437C441.562 510.437 444.053 513.562 444.053 518.4V534.773C444.053 539.568 441.648 542.736 436.766 542.736C431.885 542.736 429.566 539.568 429.566 534.773V518.4ZM433.051 534.96C433.051 537.84 434.275 539.525 436.81 539.525C439.344 539.525 440.568 537.855 440.568 534.96V518.213C440.568 515.333 439.387 513.648 436.81 513.648C434.232 513.648 433.051 515.362 433.051 518.213V534.96Z" fill="#263238"/>
<path d="M450.562 542.419H447.394V510.739H451.872L459.202 533.635V510.739H462.326V542.419H458.654L450.562 516.816V542.419Z" fill="#263238"/>
<path d="M476.986 486.173H247.277V499.867H476.986V486.173Z" fill="#BD1876"/>
<path d="M337.118 486.173H321.826L313.978 499.853H329.27L337.118 486.173Z" fill="#263238"/>
<path d="M476.986 499.853V487.498L469.901 499.853H476.986Z" fill="#263238"/>
<path d="M368.294 486.173H353.002L345.168 499.853H360.461L368.294 486.173Z" fill="#263238"/>
<path d="M305.928 486.173H290.635L282.787 499.853H298.095L305.928 486.173Z" fill="#263238"/>
<path d="M251.611 499.853H266.904L274.752 486.173H259.445L251.611 499.853Z" fill="#263238"/>
<path d="M461.851 486.173H446.558L438.725 499.853H454.018L461.851 486.173Z" fill="#263238"/>
<path d="M399.485 486.173H384.192L376.344 499.853H391.651L399.485 486.173Z" fill="#263238"/>
<path d="M430.675 486.173H415.368L407.534 499.853H422.827L430.675 486.173Z" fill="#263238"/>
<path d="M142.905 515.16L103.565 665.453H191.304L151.963 515.16C151.724 514.138 151.146 513.228 150.324 512.576C149.502 511.924 148.484 511.569 147.434 511.569C146.385 511.569 145.367 511.924 144.544 512.576C143.722 513.228 143.145 514.138 142.905 515.16Z" fill="#F4DB73" stroke="#263238" stroke-width="1.44" stroke-linecap="round" stroke-linejoin="round"/>
<path d="M103.565 665.453H175.046L139.305 528.898L103.565 665.453Z" fill="#263238" stroke="#263238" stroke-width="1.44" stroke-linecap="round" stroke-linejoin="round"/>
<path d="M200.16 662.155H90.72C87.5388 662.155 84.96 664.734 84.96 667.915V668.65C84.96 671.831 87.5388 674.41 90.72 674.41H200.16C203.341 674.41 205.92 671.831 205.92 668.65V667.915C205.92 664.734 203.341 662.155 200.16 662.155Z" fill="#F4DB73" stroke="#263238" stroke-width="1.44" stroke-linecap="round" stroke-linejoin="round"/>
<path d="M162.706 662.155H90.72C87.5388 662.155 84.96 664.734 84.96 667.915V668.65C84.96 671.831 87.5388 674.41 90.72 674.41H162.706C165.887 674.41 168.466 671.831 168.466 668.65V667.915C168.466 664.734 165.887 662.155 162.706 662.155Z" fill="#263238" stroke="#263238" stroke-width="1.44" stroke-linecap="round" stroke-linejoin="round"/>
<path d="M119.261 605.506H175.608L168.797 579.47H126.072L119.261 605.506Z" fill="white" stroke="#263238" stroke-width="1.44" stroke-linecap="round" stroke-linejoin="round"/>
<path d="M119.261 605.506H159.365L152.554 579.47H126.072L119.261 605.506Z" fill="#BABABA" stroke="#263238" stroke-width="1.44" stroke-linecap="round" stroke-linejoin="round"/>
<path d="M374.52 199.977C379.452 195.045 379.452 187.049 374.52 182.117C369.588 177.185 361.592 177.185 356.66 182.117C351.729 187.049 351.729 195.045 356.66 199.977C361.592 204.909 369.588 204.909 374.52 199.977Z" fill="white" stroke="#263238" stroke-width="1.44" stroke-linecap="round" stroke-linejoin="round"/>
<path d="M365.947 89.0495V30.0527" stroke="#263238" stroke-width="2.88" stroke-linecap="round" stroke-linejoin="round"/>
<path d="M365.947 128.016V89.0496" stroke="#808080" stroke-width="2.88" stroke-miterlimit="10"/>
<path d="M346.378 128.016L307.397 195.552H423.691L384.696 128.016H346.378Z" fill="#BD1876" stroke="#263238" stroke-width="1.40073" stroke-miterlimit="10"/>
<path d="M350.294 128.016L319.262 195.552H411.826L380.794 128.016H350.294Z" fill="#263238" stroke="#263238" stroke-width="1.44" stroke-linecap="round" stroke-linejoin="round"/>
<path d="M258.754 277.157H95.4145C91.4235 277.157 87.596 278.742 84.7739 281.564C81.9519 284.386 80.3665 288.214 80.3665 292.205V577.44L258.754 277.157Z" fill="#808080" stroke="#263238" stroke-width="1.44" stroke-miterlimit="10"/>
<path d="M472.032 277.157H635.371C639.362 277.157 643.19 278.742 646.012 281.564C648.834 284.386 650.419 288.214 650.419 292.205V578.318L472.032 277.157Z" fill="#808080" stroke="#263238" stroke-width="1.44" stroke-miterlimit="10"/>
<path d="M258.754 277.157L80.3665 577.483" stroke="#263238" stroke-width="1.44" stroke-linecap="round" stroke-linejoin="round"/>
<path d="M472.032 277.157L650.419 578.318" stroke="#263238" stroke-width="1.44" stroke-linecap="round" stroke-linejoin="round"/>
<path d="M103.493 539.006V306.058H240.927" stroke="#263238" stroke-width="1.44" stroke-linecap="round" stroke-linejoin="round"/>
<path d="M489.47 306.058H627.293V540.187" stroke="#263238" stroke-width="1.44" stroke-linecap="round" stroke-linejoin="round"/>
<path d="M472.032 277.157L423.691 195.552H307.397L258.754 277.157" fill="white" fill-opacity="0.3"/>
<path d="M472.032 277.157L423.691 195.552H307.397L258.754 277.157" stroke="#263238" stroke-width="1.44" stroke-miterlimit="10"/>
</svg>
